{"title":"The Innkeepers[2011]ENG[DvDRip]Xvid-{RedDragon}","uid":6933776,"size":739791961,"categoryP":"video","categoryS":"movies","magnet":"?xt=urn:btih:a6e2623b362234e975ffef33a31e01ad886aad15&amp;dn=The+Innkeepers%5B2011%5DENG%5BDvDRip%5DXvid-%7BRedDragon%7D&amp;tr=udp%3A%2F%2Ftracker.openbittorrent.com%3A80&amp;tr=udp%3A%2F%2Fopen.demonii.com%3A1337&amp;tr=udp%3A%2F%2Ftracker.coppersurfer.tk%3A6969&amp;tr=udp%3A%2F%2Fexodus.desync.com%3A6969","seeders":1,"leechers":0,"uploader":"RedDr4gon","files":8,"time":1325755190,"description":"General\n\nComplete name                    : The.Innkeepers.[2011].ENG.[DvDRip].Xvid-{RedDragon}.avi\nFormat                           : AVI\nFormat/Info                      : Audio Video Interleave\nFile size                        : 705 MiB\nDuration                         : 1h 41mn\nOverall bit rate                 : 1 005 Kbps\nIMDB                             : http://www.imdb.com/title/tt1594562/\nIMDB Rating                      : 7/10\n\nVideo\n\nID                               : 0\nFormat                           : MPEG-4 Visual\nFormat profile                   : Advanced Simple@L5\nFormat settings, BVOP            : Yes\nFormat settings, QPel            : No\nFormat settings, GMC             : No warppoints\nFormat settings, Matrix          : Default (H.263)\nCodec ID                         : XVID\nCodec ID/Hint                    : XviD\nDuration                         : 1h 41mn\nBit rate                         : 871 Kbps\nWidth                            : 640 pixels\nHeight                           : 272 pixels\nDisplay aspect ratio             : 2.35:1\nFrame rate                       : 23.976 fps\nColor space                      : YUV\nChroma subsampling               : 4:2:0\nBit depth                        : 8 bits\nScan type                        : Progressive\nBits/(Pixel*Frame)               : 0.209\nStream size                      : 632 MiB (87%)\nWriting library                  : XviD 1.2.1 (UTC 2008-12-04)\n\nAudio\n\nID                               : 1\nFormat                           : MPEG Audio\nFormat version                   : Version 1\nFormat profile                   : Layer 3\nMode                             : Joint stereo\nMode extension                   : MS Stereo\nCodec ID                         : 55\nCodec ID/Hint                    : MP3\nDuration                         : 1h 41mn\nBit rate mode                    : Constant\nBit rate                         : 128 Kbps\nChannel(s)                       : 2 channels\nSampling rate                    : 48.0 KHz\nStream size                      : 92.9 MiB (13%)\nAlignment                        : Aligned on interleaves\nInterleave, duration             : 167 ms (4.00 video frames)\nInterleave, preload duration     : 216 ms\n \n\nFORUMS. \n \n \nPlease Join my Forums :\n &lt;a href=&quot;\nhttp://discussionforums.freeforhosting.com/&quot; rel=&quot;nofollow&quot; target=&quot;_NEW&quot;&gt;\nhttp://discussionforums.freeforhosting.com/&lt;/a&gt;    --&gt; Discussion Forum.","torrent":{"xt":"urn:btih:a6e2623b362234e975ffef33a31e01ad886aad15","amp;dn":"The+Innkeepers%5B2011%5DENG%5BDvDRip%5DXvid-%7BRedDragon%7D","amp;tr":["udp%3A%2F%2Ftracker.openbittorrent.com%3A80","udp%3A%2F%2Fopen.demonii.com%3A1337","udp%3A%2F%2Ftracker.coppersurfer.tk%3A6969","udp%3A%2F%2Fexodus.desync.com%3A6969"],"infoHash":"a6e2623b362234e975ffef33a31e01ad886aad15","infoHashBuffer":{"type":"Buffer","data":[166,226,98,59,54,34,52,233,117,255,239,51,163,30,1,173,136,106,173,21]},"announce":[],"urlList":[]}}